<svg id="Calque_1" data-name="Calque 1" xmlns="http://www.w3.org/2000/svg" xmlns:xlink="http://www.w3.org/1999/xlink" viewBox="0 0 646.82 810"><defs><style>.cls-1{fill:url(#Dégradé_sans_nom_5);}.cls-2{fill:#3a2623;}</style><linearGradient id="Dégradé_sans_nom_5" x1="335.28" y1="687.42" x2="960.69" y2="326.34" gradientUnits="userSpaceOnUse"><stop offset="0" stop-color="#997a77"/><stop offset="0.09" stop-color="#9e807d"/><stop offset="0.22" stop-color="#ab908d"/><stop offset="0.35" stop-color="#c2aaa8"/><stop offset="0.5" stop-color="#e0cecd"/><stop offset="0.65" stop-color="#c2aaa8"/><stop offset="0.78" stop-color="#ab908d"/><stop offset="0.91" stop-color="#9e807d"/><stop offset="1" stop-color="#997a77"/></linearGradient></defs><title>file_random</title><path class="cls-1" d="M747.76,119.65c0,41.31.17,80.2-.05,119.1-.19,34,12.26,61.8,39.11,83,18.65,14.7,40,21.17,63.51,21.13,38.89-.07,77.77,0,119.86,0,0,17.87,0,34.39,0,50.92q0,192.55,0,385.1c0,47.32-23.6,70.69-70.79,70.7q-213.24.07-426.49,0c-46,0-69.8-23.65-69.83-69.83q-.2-295.12,0-590.24c0-46.18,23.86-69.74,69.88-69.78q127.77-.12,255.53,0ZM686.54,586.5q-70,0-140.05,0c-12.75,0-20.63,5.84-20.89,19.22s7.87,19.14,20.12,20.52a64.79,64.79,0,0,0,7.18.13q133.77,0,267.53,0c19,0,27.78-6.78,27.2-20.72-.73-17.24-12.61-19.29-26.42-19.23C776.31,586.58,731.43,586.47,686.54,586.5Zm-1.78,120.23c45.48,0,91-.16,136.45.1,13.95.08,26-2.14,26.31-19.24.33-16.81-11.37-20.73-25.34-20.74q-135.55-.09-271.11,0c-14,0-25.64,3.93-25.39,20.68.25,17.08,12.23,19.41,26.22,19.33C596.19,706.57,640.47,706.73,684.76,706.73Zm-79.34-162q29.56,0,59.11,0c12.8,0,20.56-5.8,21.06-19,.51-13.41-7.74-20.31-19.84-20.5q-60-.95-120-.08c-12.11.16-20.45,6.85-20.15,20.24.29,13.17,7.86,19.3,20.72,19.32Q575.87,544.74,605.42,544.71Z" transform="translate(-362.84 -79.6)"/><path class="cls-2" d="M1009.16,337.64c0-8.83-4.77-19.79-11-26.13C921.7,233.81,844.56,156.79,767.6,79.6H450.8c-42,10.05-73,32.56-84,76.27-2.87,11.41-3.1,23.69-3.11,35.58-.18,191.84,1.06,383.7-.84,575.52-.58,58.54,19.49,106.18,88,122.63H922.4c41.9-10.06,72.82-32.52,84-76.15,2.49-9.69,3.07-20.09,3.08-30.17C1009.69,634.73,1009.82,486.18,1009.16,337.64Zm-39,441.19c0,47.32-23.6,70.69-70.79,70.7q-213.24.07-426.49,0c-46,0-69.8-23.65-69.83-69.83q-.2-295.12,0-590.24c0-46.18,23.86-69.74,69.88-69.78q127.77-.12,255.53,0h19.29c0,41.31.17,80.2-.05,119.1-.19,34,12.26,61.8,39.11,83,18.65,14.7,40,21.17,63.51,21.13,38.89-.07,77.77,0,119.86,0,0,17.87,0,34.39,0,50.92Q970.2,586.28,970.16,778.83Z" transform="translate(-362.84 -79.6)"/><path class="cls-2" d="M686.54,586.48c44.89,0,89.78.1,134.66-.09,13.81-.06,25.7,2,26.42,19.23.59,13.93-8.18,20.69-27.2,20.72q-133.77.15-267.53,0a64.79,64.79,0,0,1-7.18-.13c-12.24-1.37-20.37-7.15-20.12-20.52s8.14-19.21,20.89-19.22Q616.51,586.45,686.54,586.48Z" transform="translate(-362.84 -79.6)"/><path class="cls-2" d="M684.76,706.73c-44.29,0-88.57-.17-132.86.1-14,.08-26-2.25-26.22-19.33-.25-16.74,11.37-20.67,25.39-20.68q135.55,0,271.11,0c14,0,25.67,3.93,25.34,20.74-.34,17.1-12.36,19.32-26.31,19.24C775.73,706.57,730.24,706.73,684.76,706.73Z" transform="translate(-362.84 -79.6)"/><path class="cls-2" d="M605.42,544.7q-29.56,0-59.11,0c-12.86,0-20.43-6.15-20.72-19.32-.3-13.39,8-20.08,20.15-20.24q60-.81,120,.08c12.11.19,20.36,7.09,19.84,20.5-.51,13.21-8.27,19-21.06,19Q635,544.67,605.42,544.7Z" transform="translate(-362.84 -79.6)"/></svg>