<svg xmlns="http://www.w3.org/2000/svg" xmlns:xlink="http://www.w3.org/1999/xlink" viewBox="0 0 419.71 314.53"><defs><style>.cls-1{fill:url(#Dégradé_sans_nom_27);}.cls-2{fill:url(#Dégradé_sans_nom_12);}.cls-3{fill:url(#Dégradé_sans_nom_30);}.cls-4{fill:#3a2623;}</style><linearGradient id="Dégradé_sans_nom_27" y1="157.27" x2="419.71" y2="157.27" gradientUnits="userSpaceOnUse"><stop offset="0" stop-color="#3a2623"/><stop offset="0.03" stop-color="#4e3b38"/><stop offset="0.11" stop-color="#7b6765"/><stop offset="0.19" stop-color="#9f8c8b"/><stop offset="0.27" stop-color="#bca9a8"/><stop offset="0.35" stop-color="#d0bebc"/><stop offset="0.43" stop-color="#dccac9"/><stop offset="0.5" stop-color="#e0cecd"/><stop offset="0.57" stop-color="#dccac9"/><stop offset="0.65" stop-color="#d0bebc"/><stop offset="0.73" stop-color="#bca9a8"/><stop offset="0.81" stop-color="#9f8c8b"/><stop offset="0.89" stop-color="#7b6765"/><stop offset="0.97" stop-color="#4e3b38"/><stop offset="1" stop-color="#3a2623"/></linearGradient><linearGradient id="Dégradé_sans_nom_12" x1="11.19" y1="136.71" x2="408.52" y2="136.71" gradientUnits="userSpaceOnUse"><stop offset="0" stop-color="#997a77"/><stop offset="0.09" stop-color="#9e807d"/><stop offset="0.22" stop-color="#ab908d"/><stop offset="0.35" stop-color="#c2aaa8"/><stop offset="0.5" stop-color="#e0cecd"/><stop offset="0.65" stop-color="#c2aaa8"/><stop offset="0.78" stop-color="#ab908d"/><stop offset="0.91" stop-color="#9e807d"/><stop offset="1" stop-color="#997a77"/></linearGradient><linearGradient id="Dégradé_sans_nom_30" x1="318.23" y1="214.44" x2="432.76" y2="214.44" gradientUnits="userSpaceOnUse"><stop offset="0" stop-color="#b25441"/><stop offset="0.09" stop-color="#bb5c4a"/><stop offset="0.23" stop-color="#d27362"/><stop offset="0.37" stop-color="#f09081"/><stop offset="0.53" stop-color="#cd7567"/><stop offset="0.73" stop-color="#a5584b"/><stop offset="0.9" stop-color="#8d4639"/><stop offset="1" stop-color="#843f33"/></linearGradient></defs><title>file_video</title><g id="Calque_1" data-name="Calque 1"><rect class="cls-1" width="419.71" height="314.53" rx="22.31" ry="22.31"/><rect class="cls-2" x="11.19" y="11.26" width="397.33" height="250.9" rx="15" ry="15"/><path class="cls-3" d="M318.25,153c0-5.5.11-5.57,4.57-3Q376.44,181,430.08,211.92c3.36,1.93,3.76,2.94.1,5q-53.69,30.83-107.27,61.85c-4.54,2.62-4.66,2.53-4.66-2.9q0-30.72,0-61.43T318.25,153Z" transform="translate(-149.15 -77.73)"/><path class="cls-4" d="M538.39,358.33H287a4.22,4.22,0,0,0-.5.05,14.13,14.13,0,0,0-26.79-.05H179.62a4.33,4.33,0,0,0,0,8.67h79.95a14.14,14.14,0,0,0,27.05,0c.13,0,.25,0,.38,0H538.39a4.33,4.33,0,0,0,0-8.67Zm-265.3,9.47a4.94,4.94,0,1,1,4.94-4.94A4.94,4.94,0,0,1,273.09,367.8Z" transform="translate(-149.15 -77.73)"/></g></svg>