<svg xmlns="http://www.w3.org/2000/svg" xmlns:xlink="http://www.w3.org/1999/xlink" viewBox="0 0 835.39 809.8"><defs><style>.cls-1{fill:url(#Dégradé_sans_nom_2);}.cls-2{fill:#3a2623;}</style><linearGradient id="Dégradé_sans_nom_2" x1="-42.04" y1="670.32" x2="877.42" y2="139.47" gradientUnits="userSpaceOnUse"><stop offset="0" stop-color="#997a77"/><stop offset="0.09" stop-color="#9e807d"/><stop offset="0.22" stop-color="#ab908d"/><stop offset="0.35" stop-color="#c2aaa8"/><stop offset="0.5" stop-color="#e0cecd"/><stop offset="0.59" stop-color="#c1acab"/><stop offset="0.71" stop-color="#9e8785"/><stop offset="0.83" stop-color="#856c6a"/><stop offset="0.92" stop-color="#765c5a"/><stop offset="1" stop-color="#715654"/></linearGradient></defs><title>file_audio</title><g id="Background"><rect class="cls-1" width="835.39" height="809.8" rx="91.1" ry="91.1"/></g><g id="Icon"><path class="cls-2" d="M826.92,490.51V256.68l-213,57c0,6.62,0,12.4,0,18.17,0,81.33-.48,162.66.33,244,.36,36.55-10.47,65.45-46.57,79.4C529.43,670,492.69,667,461.17,639c-29-25.8-26.32-66.71,5.48-89.37,32.88-23.43,68.44-25.34,105.21-9.42,2.22,1,4.32,2.24,6.48,3.34s4.21,2.11,9.06,4.52c0-7.2,0-12.68,0-18.15,0-72.56.26-145.12-.36-217.68-.12-14.25,4.8-20.82,18.59-24.42C679.52,268.55,753.18,248.4,827,228.71c23.41-6.25,27.88-2.7,27.89,21.32q0,134.41,0,268.81c0,2.92-.26,5.85-.11,8.76,2.27,42.28-16.61,67.72-58.12,77.61-29.24,7-57.18,3.76-82.56-13.19-39.27-26.24-39.32-74.27.24-100.18,30.34-19.87,63-20.88,96.47-8.58C815.71,485.08,820.41,487.57,826.92,490.51Z" transform="translate(-261.14 -40.65)"/></g></svg>