<svg id="Calque_1" data-name="Calque 1" xmlns="http://www.w3.org/2000/svg" xmlns:xlink="http://www.w3.org/1999/xlink" viewBox="0 0 813.08 809.8"><defs><style>.cls-1{fill:#3a2623;}.cls-2{fill:url(#Dégradé_sans_nom_5);}.cls-3{fill:#ceb7b5;}</style><linearGradient id="Dégradé_sans_nom_5" x1="444.33" y1="637.92" x2="1045.64" y2="290.76" gradientUnits="userSpaceOnUse"><stop offset="0" stop-color="#997a77"/><stop offset="0.09" stop-color="#9e807d"/><stop offset="0.22" stop-color="#ab908d"/><stop offset="0.35" stop-color="#c2aaa8"/><stop offset="0.5" stop-color="#e0cecd"/><stop offset="0.65" stop-color="#c2aaa8"/><stop offset="0.78" stop-color="#ab908d"/><stop offset="0.91" stop-color="#9e807d"/><stop offset="1" stop-color="#997a77"/></linearGradient></defs><title>file_text</title><path class="cls-1" d="M469.23,396.12h-10.4c-49,0-97.91.33-146.86-.32a54.48,54.48,0,0,1-25.25-7.11c-10.2-5.84-14.33-16.6-14.34-28.42-.06-62.71-.19-125.42.06-188.13.09-21.76,15.29-36.1,37.6-36.15,49.75-.12,99.5,0,149.24,0h9.16c.74-7.48,1.16-14.77,2.22-22C476.81,72.34,513,40.77,555,40.72q159.56-.18,319.13.15A17.09,17.09,0,0,1,885,45.29q98.05,97.25,195.6,195c2.45,2.46,4.54,6.62,4.55,10q.33,256,.17,512c0,41.61-25.89,75.11-66.2,85.56a82.15,82.15,0,0,1-20.34,2.48q-221.48.21-443,.08c-47.64,0-86.54-38.88-86.57-86.47q-.12-178.62,0-357.23Zm52.66,0v9.14q0,176.24,0,352.47c0,1.59,0,3.18,0,4.76.95,21,14.16,34.28,35.1,35.22,5,.22,10,0,15.07,0q210.48,0,421,0c26.15,0,39.63-13.33,39.54-39.45-.26-76.9-.83-153.81-1-230.71q-.34-125.82-.25-251.63c0-3.11,0-6.22,0-10H1022c-32.54.07-65.08,0-97.62.27-36.51.34-64.22-27.25-63.43-63,.74-33.59.16-67.21.16-100.82V93.14h-8.57q-84.53,0-169.05,0c-41.53,0-83.07,0-124.6.39C534,93.8,519.33,111,522.74,135.94H763.8c28.09,0,41.79,13.68,41.81,41.86q0,88.52-.08,177a62.59,62.59,0,0,1-2,16.4c-4.46,16.07-18,24.85-37.79,24.86q-116.7.07-233.4,0Zm10.37-109.36c8.1,16.22,15.68,31.58,23.47,46.82,1.08,2.12,3.14,5.24,4.85,5.3,11.63.47,23.29.25,35.79.25-13.82-24-26.71-46.62-40-69-2.51-4.24-2.4-7.22.12-11.23,5.18-8.24,9.86-16.79,14.73-25.23,7.58-13.14,15.14-26.3,23.28-40.44-11,0-20.46.48-29.88-.17-6.1-.42-8.9,2-11.12,7.2-6.08,14.38-12.58,28.57-19.37,43.88-7.39-15.72-14.21-30.4-21.24-45-1.05-2.18-3-5.53-4.6-5.6-11.63-.49-23.29-.26-36-.26C485.33,216.38,497.77,238,509.7,260a13.22,13.22,0,0,1,.23,10.55c-4.5,9.2-10.05,17.88-15.13,26.8-7.75,13.63-15.43,27.3-23.66,41.86,11.28,0,21.3-.28,31.29.12,4.72.19,7-1.51,8.83-5.7C518,318.18,525,302.91,532.26,286.76Zm111.81-65.44V338.75H677.5V220.91h39v-27.3H605v27.7ZM386.78,338.59h33.6V221h38.93V193.53H348.57v27.9h38.21Z" transform="translate(-272.3 -40.65)"/><path class="cls-2" d="M1031.55,527.6q-.34-125.82-.25-251.63c0-3.11,0-6.22,0-10H1022c-32.54.07-65.08,0-97.62.27-36.51.34-64.22-27.25-63.43-63,.74-33.59.16-67.21.16-100.82V93.14h-8.57q-84.53,0-169.05,0c-41.53,0-83.07,0-124.6.39C534,93.8,519.33,111,522.74,135.94H763.8c28.09,0,41.79,13.68,41.81,41.86q0,88.52-.08,177a62.59,62.59,0,0,1-2,16.4c-4.46,16.07-18,24.85-37.79,24.86q-116.7.07-233.4,0h-10.4v9.14q0,176.24,0,352.47c0,1.59,0,3.18,0,4.76.95,21,14.16,34.28,35.1,35.22,5,.22,10,0,15.07,0q210.48,0,421,0c26.15,0,39.63-13.33,39.54-39.45C1032.32,681.41,1031.76,604.5,1031.55,527.6Z" transform="translate(-272.3 -40.65)"/><path class="cls-3" d="M532.26,286.76c-7.27,16.15-14.3,31.42-21,46.84-1.82,4.18-4.11,5.89-8.83,5.7-10-.4-20-.12-31.29-.12,8.23-14.57,15.91-28.23,23.66-41.86,5.07-8.92,10.63-17.6,15.13-26.8A13.22,13.22,0,0,0,509.7,260c-11.92-21.93-24.36-43.59-37.43-66.71,12.74,0,24.4-.23,36,.26,1.63.07,3.55,3.42,4.6,5.6,7,14.59,13.85,29.27,21.24,45,6.79-15.31,13.29-29.5,19.37-43.88,2.22-5.25,5-7.62,11.12-7.2,9.43.65,18.93.17,29.88.17-8.14,14.14-15.7,27.3-23.28,40.44-4.86,8.44-9.54,17-14.73,25.23-2.52,4-2.64,7-.12,11.23,13.29,22.42,26.18,45.09,40,69-12.5,0-24.16.22-35.79-.25-1.71-.07-3.77-3.18-4.85-5.3C547.94,318.34,540.36,303,532.26,286.76Z" transform="translate(-272.3 -40.65)"/><path class="cls-3" d="M644.08,221.32H605v-27.7H716.48v27.3h-39V338.75H644.08Z" transform="translate(-272.3 -40.65)"/><path class="cls-3" d="M386.78,338.59V221.44H348.57v-27.9H459.31V221H420.38V338.59Z" transform="translate(-272.3 -40.65)"/><rect class="cls-1" x="308.67" y="418.62" width="150.03" height="54.34" rx="27.17" ry="27.17"/><rect class="cls-1" x="308.67" y="526.87" width="393.74" height="54.34" rx="27.17" ry="27.17"/><rect class="cls-1" x="308.67" y="635.13" width="393.74" height="54.34" rx="27.17" ry="27.17"/></svg>