<svg id="Calque_1" data-name="Calque 1" xmlns="http://www.w3.org/2000/svg" xmlns:xlink="http://www.w3.org/1999/xlink" viewBox="0 0 835.69 759.35"><defs><style>.cls-1{fill:#ceb7b5;}.cls-2{fill:url(#Dégradé_sans_nom_17);}.cls-3{fill:url(#Dégradé_sans_nom_17-2);}.cls-4{fill:#b45441;}</style><linearGradient id="Dégradé_sans_nom_17" x1="559.61" y1="560.03" x2="936.38" y2="936.8" gradientUnits="userSpaceOnUse"><stop offset="0" stop-color="#715654"/><stop offset="0.11" stop-color="#755a58"/><stop offset="0.22" stop-color="#826462"/><stop offset="0.33" stop-color="#967674"/><stop offset="0.44" stop-color="#b38f8c"/><stop offset="0.5" stop-color="#c59f9b"/><stop offset="0.56" stop-color="#b38f8c"/><stop offset="0.67" stop-color="#967674"/><stop offset="0.78" stop-color="#826462"/><stop offset="0.89" stop-color="#755a58"/><stop offset="1" stop-color="#715654"/></linearGradient><linearGradient id="Dégradé_sans_nom_17-2" x1="302.22" y1="462.73" x2="782.27" y2="942.78" xlink:href="#Dégradé_sans_nom_17"/></defs><title>file_picture</title><path class="cls-1" d="M37.72,0H798a37.73,37.73,0,0,1,37.73,37.73v683.9A37.72,37.72,0,0,1,798,759.35H37.72A37.72,37.72,0,0,1,0,721.62V37.72A37.72,37.72,0,0,1,37.72,0Z"/><path class="cls-2" d="M1056.46,800a40.38,40.38,0,0,0,40.38-40.38V617.3L878.75,407.25C859,386,821.5,389.84,796.67,415.72L319.64,800Z" transform="translate(-261.14 -40.65)"/><path class="cls-3" d="M516.37,322.22a50.53,50.53,0,0,0-73.42-.18L261.14,513.29V759.62A40.38,40.38,0,0,0,301.52,800H925C905.33,777.67,516.37,322.22,516.37,322.22Z" transform="translate(-261.14 -40.65)"/><circle class="cls-4" cx="473.09" cy="184.9" r="76.19"/></svg>